<?xml version="1.0" encoding="utf-8"?>
<!-- Generator: Adobe Illustrator 16.0.3, SVG Export Plug-In . SVG Version: 6.00 Build 0)  -->
<!DOCTYPE svg PUBLIC "-//W3C//DTD SVG 1.1//EN" "http://www.w3.org/Graphics/SVG/1.1/DTD/svg11.dtd">
<svg version="1.1" id="Capa_1" xmlns="http://www.w3.org/2000/svg" xmlns:xlink="http://www.w3.org/1999/xlink" x="0px" y="0px"
	 width="352px" height="92px" viewBox="0 0 352 92" enable-background="new 0 0 352 92" xml:space="preserve">
<title>Logos</title>
<path fill="#ABB2B9" d="M304.09,27.813c0-2.941,2.36-5.352,5.255-5.352c1.396,0,2.7,0.578,3.712,1.542
	c1.013,1.013,1.543,2.363,1.543,3.761s-0.53,2.748-1.543,3.76c-1.012,1.014-2.314,1.592-3.712,1.592
	C306.45,33.115,304.09,30.754,304.09,27.813 M303.656,27.813c0,3.182,2.557,5.785,5.737,5.785c1.543,0,2.941-0.578,4.002-1.688
	c1.061-1.11,1.688-2.556,1.688-4.098c0-1.543-0.578-2.99-1.688-4.098c-1.109-1.109-2.508-1.688-4.002-1.688
	C306.211,22.026,303.656,24.631,303.656,27.813 M307.224,31.234h0.819v-2.699h1.83c0.29,0,0.531,0,0.725,0.097
	c0.241,0.145,0.386,0.434,0.434,0.819l0.098,1.061v0.482c0.049,0.096,0.049,0.145,0.097,0.193h1.012v-0.146
	c-0.145-0.048-0.19-0.192-0.24-0.386c-0.049-0.096-0.049-0.289-0.049-0.53l-0.048-0.819c0-0.386-0.097-0.627-0.192-0.771
	c-0.145-0.145-0.338-0.289-0.578-0.386c0.288-0.145,0.481-0.337,0.627-0.578c0.145-0.241,0.191-0.53,0.191-0.916
	c0-0.724-0.289-1.206-0.818-1.495c-0.289-0.145-0.676-0.192-1.109-0.192h-2.747L307.224,31.234z M307.994,27.813v-2.17h1.929
	c0.289,0,0.529,0.049,0.675,0.145c0.289,0.145,0.434,0.482,0.434,0.916s-0.096,0.724-0.337,0.868
	c-0.191,0.145-0.481,0.241-0.868,0.241H307.994z M79.572,35.767l-23.43,36.834h16.006L94.71,37.406L79.572,35.767z M176.041,34.947
	V21.304h-45.56c-6.219,0.386-8.919,3.374-10.943,5.496c-2.169,2.266-3.375,7.039-3.375,7.039V21.4h-24.25
	c-1.832,0-3.567,0.771-4.869,2.603c-1.351,1.784-6.896,10.944-6.896,10.944H176.041z M299.944,34.947V21.304h-48.74
	c-6.171,0.386-8.919,3.374-10.944,5.496c-2.169,2.266-3.374,7.039-3.374,7.039v1.108H299.944z M192.047,21.352h-13.644v13.596
	h13.644V21.352z M236.74,21.352h-13.598v13.596h13.598V21.352z M236.74,39.865l-13.403-0.82v15.766c0,0-0.048,4.531-4.436,4.531
	h-22.947c0,0-3.906-0.337-3.906-4.482V36.924L178.55,35.96v24.153c2.17,11.57,12.631,12.486,12.631,12.486s1.062,0.047,1.254,0.096
	h31.096c0,0,13.307-1.061,13.307-13.885L236.74,39.865z M102.279,72.602h63.735c11.088-2.22,12.246-12.344,12.246-12.344
	c0.529-2.988,0.24-5.447,0.24-5.447c-0.338-2.024-4.193-10.992-12.486-11.764c-4.966-0.482-49.175-4.002-49.175-4.002
	c0.868,4.436,2.845,6.701,4.194,7.955c3.085,2.939,7.954,3.809,7.954,3.809l34.084,2.846c1.062,0.048,3.038,0.337,2.99,2.939
	c0,0.338-0.289,2.604-2.797,2.604h-47.68V38.949l-13.258-0.965C102.279,37.984,102.279,72.602,102.279,72.602L102.279,72.602z
	 M236.835,72.695h48.79c12.245-0.723,13.98-12.342,13.98-12.342c0.435-3.037,0.097-5.543,0.097-5.543
	c-0.338-2.748-4.242-11.042-12.583-11.86c-4.918-0.481-49.416-3.085-49.416-3.085c1.302,4.579,3.086,5.978,4.436,7.229
	c3.086,2.989,7.665,3.665,7.665,3.665c1.157,0.096,34.423,2.893,34.423,2.893c1.062,0.049,3.23,0.146,3.23,2.748
	c0,0.771-0.387,1.592-0.868,2.024c0,0-1.157,0.627-2.268,0.627H236.98L236.835,72.695z"/>
</svg>
