<?xml version="1.0" encoding="utf-8"?>
<!-- Generator: Adobe Illustrator 16.0.3, SVG Export Plug-In . SVG Version: 6.00 Build 0)  -->
<!DOCTYPE svg PUBLIC "-//W3C//DTD SVG 1.1//EN" "http://www.w3.org/Graphics/SVG/1.1/DTD/svg11.dtd">
<svg version="1.1" id="Capa_1" xmlns="http://www.w3.org/2000/svg" xmlns:xlink="http://www.w3.org/1999/xlink" x="0px" y="0px"
	 width="352px" height="92px" viewBox="0 0 352 92" enable-background="new 0 0 352 92" xml:space="preserve">
<title>Logos</title>
<g>
	<path fill="#CC2229" d="M95.538,58.863c2.866,0,5.188-2.324,5.188-5.191c0-2.865-2.323-5.189-5.188-5.189H83.401v-7.863h11.104
		l0.028,0.01c2.627,0,4.757-2.129,4.757-4.757s-2.129-4.757-4.757-4.757l-13.804-0.01v27.754L95.538,58.863z M102.168,43.841
		c3.854,1.759,6.329,5.604,6.328,9.841h-0.103l0.029,0.004c0,7.166-5.811,12.996-12.975,12.996l-14.663,0.002H73V23.435h7.785
		l13.646-0.01c6.926,0,12.542,5.766,12.542,12.52l0.02-0.114c0,3.374-1.87,6.469-4.855,8.041L102.168,43.841L102.168,43.841z
		 M143.404,66.635l-0.006-13.883h-17.351v-7.784h17.347v-4.731c0-5.493-4.454-9.948-9.949-9.948c-5.494,0-9.946,4.454-9.946,9.948
		l0.021,26.397l-7.703,0.005l-0.077-26.395c0-9.793,7.94-17.732,17.732-17.732c9.793,0,17.733,7.939,17.733,17.732l0.011,26.395
		L143.404,66.635L143.404,66.635z M188.647,43.869l0.028-0.028c3.854,1.759,6.328,5.604,6.328,9.841l0.002,12.953h-7.781
		l0.011-12.963c0.001-2.863-2.32-5.188-5.186-5.189c-0.001,0-0.001,0-0.004,0h-12.138v-7.863h11.106l0.026,0.01
		c2.625-0.043,4.722-2.206,4.679-4.834c-0.042-2.567-2.112-4.639-4.679-4.68l-13.805-0.009l0.033,35.578h-7.762V23.435h7.785
		l13.646-0.01c6.928,0,12.541,5.766,12.541,12.52l0.021-0.114C193.503,39.203,191.634,42.299,188.647,43.869L188.647,43.869z
		 M220.827,66.637c-11.943,0-21.624-9.682-21.624-21.624c0-11.945,9.681-21.626,21.624-21.626h12.892l-0.032,7.752h-12.896
		c-7.643,0-13.837,6.194-13.837,13.84c0,7.643,6.193,13.839,13.837,13.839h12.895l0.032,7.816L220.827,66.637L220.827,66.637z"/>
	<path fill="#CC2229" d="M259.014,59.672c8.121,0,14.703-6.584,14.703-14.704c0-8.122-6.582-14.706-14.703-14.706
		c-8.122,0-14.705,6.584-14.705,14.706C244.309,53.089,250.892,59.672,259.014,59.672z M259.014,53.618
		c4.778-0.003,8.648-3.88,8.646-8.656c-0.006-4.772-3.872-8.64-8.646-8.644c-4.777-0.004-8.654,3.866-8.656,8.644
		c-0.004,4.776,3.865,8.653,8.645,8.656C259.005,53.618,259.01,53.618,259.014,53.618z M238.158,36.772
		c3.276-8.365,11.419-14.283,20.94-14.283c9.563,0,17.732,5.969,20.983,14.388l-0.019-0.052c0.896,2.343,3.147,3.89,5.656,3.889
		l0.117-0.019h6.591v8.65h-6.591l-0.155,0.015c-2.464-0.01-4.688,1.479-5.615,3.763l0.021-0.06
		c-3.248,8.426-11.421,14.402-20.99,14.402c-9.487,0-17.604-5.876-20.937-14.253c-0.918-2.3-3.101-3.877-5.649-3.877l-7.058,0.009
		v-8.65l7.026,0.012C235.012,40.709,237.276,39.14,238.158,36.772L238.158,36.772z"/>
</g>
</svg>
