<?xml version="1.0" encoding="utf-8"?>
<!-- Generator: Adobe Illustrator 16.0.3, SVG Export Plug-In . SVG Version: 6.00 Build 0)  -->
<!DOCTYPE svg PUBLIC "-//W3C//DTD SVG 1.1//EN" "http://www.w3.org/Graphics/SVG/1.1/DTD/svg11.dtd">
<svg version="1.1" id="Capa_1" xmlns="http://www.w3.org/2000/svg" xmlns:xlink="http://www.w3.org/1999/xlink" x="0px" y="0px"
	 width="352px" height="92px" viewBox="0 0 352 92" enable-background="new 0 0 352 92" xml:space="preserve">
<g>
	<path fill="#FFFFFF" d="M293.538,31.121c-12.768,0-19.583,7.169-19.85,16.438c-1.831-9.765-10.438-16.783-20.37-16.613
		c-9.814-0.163-18.314,6.785-20.105,16.438c0.097-8.947-7.053-16.293-16.001-16.438c-3.766-0.021-7.381,1.459-10.054,4.109v-12.94
		h-9.617v28.854l-0.089,2.885c-0.61,5.945-4.635,8.916-9.007,8.916c-4.546,0-8.74-2.098-8.74-8.916l-0.265-2.448V40.65h14.949
		v-9.092h-14.862v-9.443h-9.702V47.47c-2.23-11.126-13.06-18.338-24.186-16.11c-4.646,0.934-8.83,3.442-11.838,7.104V31.12h-1.137
		c-12.503,0-19.235,6.994-19.673,15.912c-1.652-9.224-9.688-15.933-19.062-15.912c-4.499-0.097-8.835,1.677-11.979,4.896V22.029
		h-9.355v29.375c0.176,11.365,8.043,20.457,20.284,20.457c10.491,0,18.098-6.816,20.107-15.91V70.9h9.615V52.279v-2.625
		c0.266-5.944,3.938-9.354,9.88-9.441c-6.172,9.521-3.456,22.244,6.063,28.417c9.521,6.172,22.245,3.457,28.418-6.063
		c1.443-2.227,2.439-4.713,2.938-7.315c0,9.969,7.867,16.608,17.485,16.608c4.021,0,7.521-1.743,10.229-4.545v3.498h9.615V50.531
		v-1.225c0.265-6.56,4.107-9.356,8.308-9.356c4.194,0,7.868,2.798,7.868,9.268l0.088,1.574V70.9h9.792V55.775
		c1.75,9.793,10.141,16.176,20.105,16.176c9.181,0.43,17.334-5.807,19.322-14.777h-9.44c-1.52,4.137-5.476,6.867-9.881,6.82
		c-5.245,0-9.704-3.496-10.84-9.443h31.211v16.438h9.618v-18.71l0.088-2.625c0.174-5.857,4.021-9.266,10.145-9.266h1.05V31.12h-1.05
		L293.538,31.121L293.538,31.121z M92.799,62.596c-6.131,0.049-11.142-4.883-11.19-11.014c-0.001-0.061-0.001-0.119,0-0.178
		c0-6.12,4.896-11.191,11.278-11.191s11.278,4.896,11.278,11.191c0.05,6.131-4.882,11.145-11.017,11.188
		c-0.088,0.005-0.176,0-0.265,0L92.799,62.596L92.799,62.596z M149.629,62.596c-6.133-0.047-11.065-5.059-11.02-11.188l0,0
		c-0.088-6.12,4.723-11.191,11.104-11.191s11.191,4.896,11.191,11.191c0.048,6.131-4.887,11.143-11.019,11.188
		c-0.059,0-0.117,0-0.176,0H149.629z M242.916,46.857c1.351-4.631,5.58-7.833,10.401-7.868c6.12,0,9.617,4.896,10.405,7.868H242.916
		z M290.13,66.705c0,2.623,2.185,4.809,4.808,4.809c2.655,0,4.812-2.154,4.812-4.809c0-2.656-2.153-4.809-4.812-4.809
		S290.13,64.049,290.13,66.705L290.13,66.705z M290.739,66.705c-0.001-2.318,1.879-4.199,4.193-4.201
		c2.319-0.002,4.2,1.875,4.201,4.193c0,0.002,0,0.004,0,0.008c-0.002,2.318-1.883,4.195-4.201,4.193
		C292.619,70.895,290.742,69.021,290.739,66.705z"/>
	<path fill="#FFFFFF" d="M293.538,64.52h1.924c0.788,0,1.05,0.353,1.05,0.961c0,0.701-0.262,1.054-1.05,1.054h-1.924V64.52z
		 M293.538,67.143h1.924c0.521,0,0.873,0.438,0.873,1.14v0.608l0.263,0.701h0.874v-0.088l-0.349-0.701v-0.785
		c-0.088-0.522-0.354-0.963-0.7-1.137c0.521-0.176,0.873-0.699,0.873-1.486c0-0.875-0.611-1.574-1.748-1.574h-2.798v5.771h0.787
		v-2.359L293.538,67.143L293.538,67.143z"/>
</g>
<title>Logos</title>
</svg>
