<?xml version="1.0" encoding="utf-8"?>
<!-- Generator: Adobe Illustrator 16.0.3, SVG Export Plug-In . SVG Version: 6.00 Build 0)  -->
<!DOCTYPE svg PUBLIC "-//W3C//DTD SVG 1.1//EN" "http://www.w3.org/Graphics/SVG/1.1/DTD/svg11.dtd">
<svg version="1.1" id="Capa_1" xmlns="http://www.w3.org/2000/svg" xmlns:xlink="http://www.w3.org/1999/xlink" x="0px" y="0px"
	 width="352px" height="92px" viewBox="0 0 352 92" enable-background="new 0 0 352 92" xml:space="preserve">
<title>Logos</title>
<g>
	<path fill="#005CAB" d="M293.33,31.121c-12.765,0-19.583,7.169-19.847,16.438c-1.831-9.765-10.438-16.784-20.37-16.613
		c-9.817-0.164-18.317,6.784-20.108,16.437c0.097-8.948-7.053-16.293-16.001-16.437c-3.763-0.021-7.381,1.458-10.054,4.109v-12.94
		h-9.617v28.854l-0.089,2.885c-0.61,5.945-4.632,8.916-9.004,8.916c-4.546,0-8.743-2.098-8.743-8.916l-0.262-2.449V40.651h14.949
		v-9.093h-14.862v-9.443h-9.705v25.355c-2.23-11.126-13.057-18.338-24.183-16.11c-4.646,0.933-8.83,3.442-11.838,7.104v-7.344
		h-1.137c-12.503,0-19.235,6.994-19.673,15.912c-1.652-9.224-9.688-15.932-19.059-15.912c-4.499-0.096-8.835,1.677-11.979,4.896
		V22.029h-9.355v29.375c0.176,11.365,8.043,20.457,20.284,20.457c10.491,0,18.098-6.816,20.108-15.91V70.9h9.617V52.279v-2.625
		c0.263-5.944,3.936-9.354,9.88-9.441c-6.172,9.521-3.457,22.244,6.063,28.417c9.522,6.172,22.245,3.457,28.418-6.063
		c1.443-2.227,2.44-4.713,2.939-7.318c0,9.969,7.868,16.611,17.486,16.611c4.021,0,7.519-1.746,10.229-4.545v3.498h9.617V50.531
		v-1.225c0.263-6.557,4.108-9.356,8.306-9.356c4.196,0,7.868,2.798,7.868,9.268l0.088,1.574V70.9h9.792V55.775
		c1.75,9.793,10.141,16.176,20.108,16.176c9.178,0.43,17.334-5.807,19.322-14.777h-9.441c-1.519,4.137-5.475,6.867-9.88,6.82
		c-5.246,0-9.705-3.496-10.84-9.443h31.211v16.438h9.618V52.279l0.088-2.625c0.174-5.857,4.021-9.266,10.142-9.266h1.05v-9.268
		h-1.05H293.33z M92.591,62.596c-6.131,0.049-11.142-4.883-11.19-11.014c-0.001-0.061-0.001-0.119,0-0.178
		c0-6.12,4.895-11.191,11.278-11.191s11.278,4.897,11.278,11.191c0.05,6.131-4.882,11.145-11.014,11.191
		c-0.088,0.002-0.176,0-0.265,0H92.591z M149.421,62.596c-6.133-0.047-11.065-5.059-11.017-11.191l0,0
		c-0.088-6.12,4.72-11.191,11.103-11.191s11.192,4.897,11.192,11.191c0.047,6.131-4.885,11.143-11.017,11.191
		c-0.059,0-0.117,0-0.176,0H149.421z M242.708,46.857c1.351-4.631,5.58-7.83,10.404-7.868c6.12,0,9.617,4.896,10.405,7.868H242.708z
		 M289.922,66.705c0,2.623,2.185,4.809,4.808,4.809c2.655,0,4.809-2.154,4.809-4.809c0-2.656-2.153-4.809-4.809-4.809
		C292.073,61.896,289.922,64.049,289.922,66.705L289.922,66.705z M290.531,66.705c-0.001-2.318,1.876-4.199,4.193-4.201
		c2.319-0.002,4.2,1.875,4.201,4.193c0,0.002,0,0.004,0,0.008c-0.002,2.318-1.883,4.195-4.201,4.193
		C292.411,70.895,290.534,69.021,290.531,66.705z"/>
	<path fill="#005CAB" d="M293.33,64.52h1.924c0.788,0,1.05,0.35,1.05,0.961c0,0.701-0.262,1.051-1.05,1.051h-1.924V64.52z
		 M293.33,67.143h1.924c0.524,0,0.873,0.438,0.873,1.137v0.611l0.263,0.701h0.874v-0.088l-0.349-0.701v-0.785
		c-0.088-0.525-0.351-0.963-0.7-1.137c0.524-0.176,0.873-0.699,0.873-1.486c0-0.875-0.611-1.574-1.748-1.574h-2.798v5.77h0.787
		V67.23L293.33,67.143L293.33,67.143z"/>
</g>
</svg>
