<?xml version="1.0" encoding="utf-8"?>
<!-- Generator: Adobe Illustrator 16.0.3, SVG Export Plug-In . SVG Version: 6.00 Build 0)  -->
<!DOCTYPE svg PUBLIC "-//W3C//DTD SVG 1.1//EN" "http://www.w3.org/Graphics/SVG/1.1/DTD/svg11.dtd">
<svg version="1.1" id="Capa_1" xmlns="http://www.w3.org/2000/svg" xmlns:xlink="http://www.w3.org/1999/xlink" x="0px" y="0px"
	 width="352px" height="92px" viewBox="0 0 352 92" enable-background="new 0 0 352 92" xml:space="preserve">
<title>Logos</title>
<path fill="#0083CA" d="M167.228,21.846c3.667,2.428,7.416,4.772,10.876,7.406c-7.816,4.908-15.481,9.972-23.256,14.926
	c1.18,0.903,2.522,1.642,3.702,2.544c7.839-4.965,15.68-9.927,23.488-14.924c3.502,2.167,6.95,4.39,10.182,6.826
	c-7.824,4.942-15.385,10.146-23.141,15.155c1.149,0.936,2.559,1.611,3.818,2.434c8.015-4.907,15.83-10.012,23.719-15.043V24.74
	h17.355v32.745c4.897,0.27,10.297,0.037,15.39,0.112v15.392h-32.745v-15.62c-9.62,5.845-19.479,12.454-29.158,18.627
	c-10.077-6.545-19.79-13.454-29.851-20.016c-2.914,9.236-9.835,16.187-21.289,17.009c-7.143,0.509-15.26-0.382-23.488,0V24.74
	c10.286,0.681,21.581-1.375,29.735,1.157c7.21,2.24,12.323,7.993,14.694,15.156C147.329,34.73,157.235,28.246,167.228,21.846
	L167.228,21.846z M109.376,40.244v17.356c4.134,0.021,7.279,0.259,9.719-1.621c3.63-2.798,4.362-9.729,1.157-13.422
	c-2.139-2.466-5.75-2.982-10.761-2.662C109.357,39.916,109.365,40.08,109.376,40.244z M233.872,24.74h17.355v32.861H266.5v15.388
	h-32.745V25.086C233.748,24.922,233.738,24.758,233.872,24.74L233.872,24.74z"/>
</svg>
