<?xml version="1.0" encoding="utf-8"?>
<!-- Generator: Adobe Illustrator 16.0.3, SVG Export Plug-In . SVG Version: 6.00 Build 0)  -->
<!DOCTYPE svg PUBLIC "-//W3C//DTD SVG 1.1//EN" "http://www.w3.org/Graphics/SVG/1.1/DTD/svg11.dtd">
<svg version="1.1" id="Capa_1" xmlns="http://www.w3.org/2000/svg" xmlns:xlink="http://www.w3.org/1999/xlink" x="0px" y="0px"
	 width="352px" height="92px" viewBox="0 0 352 92" enable-background="new 0 0 352 92" xml:space="preserve">
<title>Logos</title>
<g>
	<path fill="#FFFFFF" d="M225.319,65.948c-9.198,0-12.743-8.468-12.743-17.072c0-8.606,3.545-17.067,12.743-17.067
		c9.189,0,12.744,8.461,12.744,17.067C238.063,57.48,234.509,65.948,225.319,65.948 M225.318,23.151
		c-14.485,0-22.85,10.854-22.85,25.725c0,14.875,8.363,25.728,22.85,25.728c14.479,0,22.841-10.853,22.841-25.728
		C248.158,34.005,239.798,23.152,225.318,23.151 M77.395,24.595h36.296v8.658H87.491v10.769h24.433v8.439H87.491v12.046h26.2v8.653
		H77.395V24.595z M137.253,49.936h-9.142V33.242h9.142c6.353,0,10.579,2.765,10.579,8.349
		C147.832,47.174,143.606,49.936,137.253,49.936 M118.02,73.158h10.092V58.587h9.142c12.371,0,20.672-6.075,20.672-16.996
		s-8.302-16.995-20.672-16.995H118.02V73.158z M262.339,24.595h-10.366v48.564h9.898V53.488c0-5.385-0.192-10.16-0.374-14.384
		c1.166,2.431,4.71,9.737,6.345,12.481l12.884,21.573h10.365V24.595h-9.897v19.179c0,5.378,0.197,10.656,0.375,14.871
		c-1.168-2.432-4.702-9.731-6.36-12.474L262.339,24.595z M169.391,57.092c0,6.527,5.43,9.063,11.204,9.063
		c3.771,0,9.892-1.093,9.892-6.106c0-5.295-7.479-6.294-14.694-8.215c-7.567-2.004-14.855-4.842-14.855-13.841
		c0.001-10.032,9.49-14.842,18.354-14.842c10.233,0,19.646,4.467,19.646,15.8h-10.099c-0.343-5.906-4.878-7.421-10.031-7.421
		c-3.436,0-7.765,1.444-7.765,5.572c0,3.776,2.47,4.359,14.759,7.523c3.578,0.894,14.786,3.057,14.786,14.184
		c0,9.004-7.077,15.729-20.413,15.729c-10.848,0-21.017-5.354-20.881-17.446H169.391z"/>
</g>
</svg>
