<?xml version="1.0" encoding="utf-8"?>
<!-- Generator: Adobe Illustrator 16.0.3, SVG Export Plug-In . SVG Version: 6.00 Build 0)  -->
<!DOCTYPE svg PUBLIC "-//W3C//DTD SVG 1.1//EN" "http://www.w3.org/Graphics/SVG/1.1/DTD/svg11.dtd">
<svg version="1.1" id="Capa_1" xmlns="http://www.w3.org/2000/svg" xmlns:xlink="http://www.w3.org/1999/xlink" x="0px" y="0px"
	 width="352px" height="92px" viewBox="0 0 352 92" enable-background="new 0 0 352 92" xml:space="preserve">
<title>Logos</title>
<g>
	<path fill="#6C6E71" d="M270.044,26.422c-7.54-0.252-15.69,4.088-19.56,12.256c-2.397,4.611-4.23,9.744-5.448,14.784
		c-0.107,0.443-0.208,0.888-0.305,1.333c-0.119,0.716-0.13,1.637-0.065,2.574c0.299,3.967,3.821,8.763,9.627,9.034h6.883
		c7.537,0.251,15.687-4.09,19.556-12.26c2.4-4.611,4.231-9.749,5.447-14.785c0.109-0.449,0.213-0.894,0.303-1.334
		c0.128-0.72,0.137-1.635,0.067-2.574c-0.298-3.968-3.819-8.759-9.624-9.03h-6.883L270.044,26.422z M140.765,26.787l3.084,39.229
		h6.182h-0.037h0.364c1.203-0.041,2.314-0.659,2.981-1.66h0.004l25.205-37.567h-6.519l-18.056,26.963l-2.119-26.961h-11.093
		L140.765,26.787z M183.054,26.787l-14.465,39.229h11.104l14.459-39.227h-11.099V26.787z M209.108,26.787
		c-9.975,0.121-14.381,11.219-8.932,18.325c2.764,3.376,6.709,6.876,8.939,10.572c1.413,2-0.099,5.332-2.797,5.365h-17.61
		l-1.822,4.965h22.297c8.739-0.026,14.654-10.318,8.789-18.21c-2.708-3.999-7.001-6.729-9.54-10.634
		c-1.509-2.039,0.009-5.383,2.736-5.42h16.393l1.824-4.963h-20.272H209.108z M237.067,26.787l-14.455,39.231h11.101l14.46-39.229
		h-11.105V26.787z M297.002,26.787l-14.525,39.228h5.723l10.01-27.036l0.049,0.485l8.991,24.282c0.552,1.311,1.807,2.19,3.229,2.27
		h5.231l14.525-39.227h-5.718L314.699,53.3l-10.453-26.512h-7.247L297.002,26.787z M272.58,30.477
		c2.094,0.16,3.756,1.921,3.756,4.057c0.016,0.525-0.075,1.043-0.271,1.518l-7.335,19.977c-1.482,3.834-4.92,6.184-9.008,6.306
		h-1.083c-2.117-0.171-3.753-1.936-3.757-4.06c-0.017-0.521,0.075-1.04,0.273-1.522l7.333-19.978
		c1.482-3.834,4.921-6.178,9.015-6.296L272.58,30.477L272.58,30.477L272.58,30.477z"/>
	<path fill="#D71820" d="M37.87,26.79L23.406,66.017h11.79l6.917-18.762h14.035L49.23,66.017h9.208c1.559,0,2.898-0.983,3.439-2.355
		c0.006-0.019,0.012-0.025,0.021-0.037l13.582-36.837H63.693l-5.569,15.104H44.089l5.568-15.104H37.87V26.79z M82.971,26.79
		L68.512,66.017h11.783l14.463-39.229h-11.79h0.001V26.79z M102.779,26.79L88.317,66.017h11.784l5.545-15.044l2.946-2.263
		l7.818,15.156l0.005-0.019l0.02,0.033c0.66,1.37,2.086,2.203,3.604,2.104c-0.029,0-0.061,0.021-0.091,0.021h10.009L117.505,41.86
		l19.639-15.077h-8.809l-19.211,14.75l5.439-14.75h-11.784V26.79z"/>
	<path fill="#6C6E71" d="M338.924,30.256c0,2.186-1.715,3.899-3.945,3.899c-2.209,0-3.968-1.713-3.968-3.899
		c0-2.139,1.759-3.854,3.968-3.854C337.209,26.402,338.924,28.117,338.924,30.256 M331.997,30.256c0,1.715,1.265,3.077,3.005,3.077
		c1.691,0,2.936-1.362,2.936-3.055c0-1.712-1.244-3.101-2.959-3.101C333.262,27.178,331.997,28.566,331.997,30.256 M334.366,32.276
		h-0.892v-3.851c0.489-0.086,0.984-0.127,1.482-0.119c0.724,0,1.056,0.119,1.335,0.284c0.248,0.21,0.386,0.521,0.375,0.845
		c0,0.424-0.327,0.751-0.798,0.891v0.048c0.376,0.141,0.588,0.425,0.705,0.942c0.119,0.587,0.189,0.821,0.282,0.961h-0.963
		c-0.117-0.141-0.188-0.492-0.306-0.938c-0.068-0.424-0.303-0.61-0.796-0.61h-0.425v1.548L334.366,32.276L334.366,32.276z
		 M334.391,30.093h0.421c0.496,0,0.895-0.165,0.895-0.564c0-0.351-0.259-0.585-0.822-0.585c-0.233,0-0.398,0.021-0.493,0.045V30.093
		L334.391,30.093L334.391,30.093z"/>
</g>
</svg>
