<?xml version="1.0" encoding="utf-8"?>
<!-- Generator: Adobe Illustrator 16.0.3, SVG Export Plug-In . SVG Version: 6.00 Build 0)  -->
<!DOCTYPE svg PUBLIC "-//W3C//DTD SVG 1.1//EN" "http://www.w3.org/Graphics/SVG/1.1/DTD/svg11.dtd">
<svg version="1.1" id="Capa_1" xmlns="http://www.w3.org/2000/svg" xmlns:xlink="http://www.w3.org/1999/xlink" x="0px" y="0px"
	 width="352px" height="97.5px" viewBox="0 0 352 97.5" enable-background="new 0 0 352 97.5" xml:space="preserve">
<g>
	<path fill="#0097D7" d="M186.62,3c25.214,0,45.652,20.439,45.652,45.653c0,25.214-20.438,45.654-45.652,45.654
		c-0.847,0-1.686-0.024-2.52-0.07l9.604-26.969h9.982c2.899,0,5.949-2.371,6.779-5.271l8.43-23.676
		c1.711-4.807-1.491-7.643-5.165-7.653l-16.447-0.005l-22.143,62.188c-19.658-5.092-34.175-22.949-34.175-44.199
		c0-21.694,15.132-39.854,35.417-44.5l-21.949,61.644h9.455l10.631-29.858h5.433l-10.608,29.793h9.454l9.76-27.412
		c1.711-4.807-1.489-7.643-5.165-7.653l-6.988-0.02l9.843-27.644C186.37,3.003,186.495,3,186.62,3L186.62,3z"/>
	<path fill="#0097D7" d="M195.581,61.997l9.277-26.058h5.433l-9.278,26.058H195.581z"/>
</g>
<title>Logos</title>
</svg>
