<?xml version="1.0" encoding="utf-8"?>
<!-- Generator: Adobe Illustrator 16.0.3, SVG Export Plug-In . SVG Version: 6.00 Build 0)  -->
<!DOCTYPE svg PUBLIC "-//W3C//DTD SVG 1.1//EN" "http://www.w3.org/Graphics/SVG/1.1/DTD/svg11.dtd">
<svg version="1.1" id="Capa_1" xmlns="http://www.w3.org/2000/svg" xmlns:xlink="http://www.w3.org/1999/xlink" x="0px" y="0px"
	 width="352px" height="92px" viewBox="0 0 352 92" enable-background="new 0 0 352 92" xml:space="preserve">
<title>Logos</title>
<g>
	<path fill="#FFD100" d="M226.656,46.116c0-2.498,0-7.353,21.695-7.353c0.728,0,1.321,0.587,1.321,1.321v2.965
		c0,0.728-0.595,1.329-1.321,1.329c-10.414,0-10.414,2.504-10.414,3.565v23.049c0,0.74-0.602,1.339-1.341,1.339h-8.605
		c-0.728,0-1.332-0.601-1.332-1.339V46.116"/>
	<path fill="#FFD100" d="M163.527,46.116v19.622c0,2.504,0,7.359-21.675,7.359c-21.69,0-21.69-4.855-21.69-7.359v-5.654
		c0-2.498,0-7.359,21.69-7.359c4.242,0,7.662,0.188,10.408,0.512v-5.293c0-1.063,0-3.566-10.408-3.566
		c-9.656,0-9.656,2.502-9.656,3.566c0,0.728-0.589,1.328-1.322,1.328h-8.617c-0.734,0-1.328-0.602-1.328-1.328v-1.828
		c0-2.497,0-7.352,20.924-7.352C163.527,38.763,163.527,43.618,163.527,46.116 M131.43,63.916c0,1.043,0,3.547,10.421,3.547
		c10.408,0,10.408-2.504,10.408-3.547v-1.992c0-1.063,0-3.579-10.408-3.579c-10.421,0-10.421,2.517-10.421,3.579V63.916
		L131.43,63.916z"/>
	<path fill="#FFD100" d="M173.415,26.058c0-0.733,0.595-1.333,1.321-1.333h8.618c0.734,0,1.329,0.601,1.329,1.333v13.159
		c2.743-0.323,6.165-0.512,10.407-0.512c21.688,0,21.688,4.856,21.688,7.359v19.634c0,2.483,0,7.341-21.688,7.341
		c-21.675,0-21.675-4.855-21.675-7.341L173.415,26.058 M184.684,63.859c0,1.063,0,3.555,10.407,3.555
		c10.42,0,10.42-2.492,10.42-3.555V47.886c0-1.043,0-3.554-10.42-3.554c-10.407,0-10.407,2.511-10.407,3.554V63.859z"/>
	<path fill="#FFD100" d="M295.806,46.116v19.622c0,2.504,0,7.359-21.701,7.359c-21.676,0-21.676-4.855-21.676-7.359v-5.654
		c0-2.498,0-7.359,21.676-7.359c4.257,0,7.678,0.188,10.429,0.512v-5.293c0-1.063,0-3.566-10.429-3.566
		c-9.636,0-9.636,2.502-9.636,3.566c0,0.728-0.601,1.328-1.329,1.328h-8.611c-0.739,0-1.327-0.602-1.327-1.328v-1.828
		c0-2.497,0-7.352,20.903-7.352C295.806,38.763,295.806,43.618,295.806,46.116 M263.697,63.916c0,1.043,0,3.547,10.408,3.547
		c10.429,0,10.429-2.504,10.429-3.547v-1.992c0-1.063,0-3.579-10.429-3.579c-10.408,0-10.408,2.517-10.408,3.579V63.916
		L263.697,63.916z"/>
	<path fill="#FFD100" d="M307.079,26.616c4.287,0,7.633,3.345,7.633,7.512c0,4.249-3.346,7.538-7.688,7.538
		c-4.308,0-7.728-3.29-7.728-7.538c0-4.167,3.42-7.512,7.728-7.512H307.079 M306.972,28.133c-3.287,0-5.754,2.7-5.754,5.995
		c0,3.337,2.467,5.981,5.861,5.981c3.282,0.056,5.71-2.644,5.71-5.981c0-3.295-2.428-5.995-5.767-5.995H306.972z M305.828,38.004
		h-1.739v-7.456c0.696-0.132,1.655-0.279,2.883-0.279c1.418,0,2.063,0.24,2.612,0.601c0.416,0.322,0.739,0.916,0.739,1.593
		c0,0.879-0.646,1.518-1.556,1.79v0.107c0.739,0.222,1.139,0.814,1.366,1.821c0.229,1.138,0.365,1.599,0.55,1.821h-1.878
		c-0.229-0.266-0.361-0.911-0.59-1.777c-0.146-0.822-0.605-1.188-1.556-1.188h-0.833L305.828,38.004L305.828,38.004z
		 M305.885,33.799h0.813c0.968,0,1.746-0.316,1.746-1.101c0-0.689-0.494-1.144-1.61-1.144c-0.455,0-0.772,0.056-0.949,0.093V33.799z
		"/>
	<path fill="#FFD100" d="M110.664,65.742c0,2.499,0,7.355-21.688,7.355c-21.688,0-21.688-4.856-21.688-7.355v-3.364
		c0-0.739,0.594-1.328,1.34-1.328h8.605c0.728,0,1.329,0.589,1.329,1.328v1.669c0.019,1.12,0.404,3.428,10.414,3.428
		c10.408,0,10.421-2.504,10.421-3.561V26.108c0-0.733,0.587-1.327,1.32-1.327h8.613c0.738,0,1.333,0.594,1.333,1.327V65.742"/>
</g>
</svg>
