<?xml version="1.0" encoding="utf-8"?>
<!-- Generator: Adobe Illustrator 16.0.3, SVG Export Plug-In . SVG Version: 6.00 Build 0)  -->
<!DOCTYPE svg PUBLIC "-//W3C//DTD SVG 1.1//EN" "http://www.w3.org/Graphics/SVG/1.1/DTD/svg11.dtd">
<svg version="1.1" id="Capa_1" xmlns="http://www.w3.org/2000/svg" xmlns:xlink="http://www.w3.org/1999/xlink" x="0px" y="0px"
	 width="352px" height="92px" viewBox="0 0 352 92" enable-background="new 0 0 352 92" xml:space="preserve">
<title>Logos</title>
<rect x="106.395" y="33.114" width="6.176" height="37.016"/>
<polyline points="120.454,50.667 132.318,33.114 125.126,33.114 113.059,50.667 126.752,70.13 134.512,70.13 "/>
<g>
	<path d="M286.438,54.081h12.271v10.442h-12.271V54.081z M284.568,70.13h20.317V37.42c0-2.397-1.95-4.307-4.307-4.307h-19.544v5.607
		h17.635v9.71h-14.142c-2.396,0-4.307,1.951-4.307,4.309v13.044C280.221,68.22,282.171,70.13,284.568,70.13"/>
</g>
<path d="M270.997,33.114c2.397,0,4.307,1.95,4.307,4.307V49.57c0,2.396-1.95,4.308-4.307,4.308h-2.52l8.979,16.213h-6.786
	l-12.026-21.696h10.442V38.68h-12.516v31.41h-6.217V33.073"/>
<path d="M222.848,37.42c0-2.397,1.951-4.307,4.307-4.307h18.001v5.607h-16.131v9.71h15.604v5.606h-15.563V64.48h16.134v5.606
	h-18.003c-2.396,0-4.307-1.95-4.307-4.307"/>
<path d="M196.154,37.42c0-2.397,1.949-4.307,4.308-4.307h17.757v5.607H202.37V64.48h15.848v5.607H200.5
	c-2.397,0-4.308-1.949-4.308-4.307"/>
<path d="M171.366,64.523h13.206V38.762h-13.206V64.523z M165.15,37.42c0-2.397,1.949-4.307,4.308-4.307h16.943
	c2.396,0,4.308,1.95,4.308,4.307v28.363c0,2.396-1.95,4.307-4.308,4.307h-16.943c-2.396,0-4.308-1.949-4.308-4.307V37.42z"/>
<path d="M135.61,50.26V33.114h6.177v15.805h11.782V33.114h6.177v32.709c0,2.396-1.95,4.307-4.309,4.307h-18.365v-5.606h16.497
	v-9.955h-13.651C137.519,54.568,135.61,52.617,135.61,50.26"/>
<polyline fill="#E00322" points="68.16,34.982 51.5,34.982 51.5,51.643 "/>
<polyline fill="#E00322" points="68.16,68.303 51.5,68.303 51.5,51.643 "/>
<polyline fill="#E00322" points="68.16,68.303 84.819,51.643 68.16,34.982 "/>
<polyline fill="#E00322" points="84.819,34.982 68.16,34.982 78.602,24.5 95.262,24.5 95.262,41.159 84.819,51.643 "/>
<polyline fill="#E00322" points="84.819,68.303 68.16,68.303 78.602,78.743 95.262,78.743 95.262,62.085 84.819,51.643 "/>
</svg>
