<?xml version="1.0" encoding="utf-8"?>
<!-- Generator: Adobe Illustrator 16.0.3, SVG Export Plug-In . SVG Version: 6.00 Build 0)  -->
<!DOCTYPE svg PUBLIC "-//W3C//DTD SVG 1.1//EN" "http://www.w3.org/Graphics/SVG/1.1/DTD/svg11.dtd">
<svg version="1.1" id="Capa_1" xmlns="http://www.w3.org/2000/svg" xmlns:xlink="http://www.w3.org/1999/xlink" x="0px" y="0px"
	 width="352px" height="92px" viewBox="0 0 352 92" enable-background="new 0 0 352 92" xml:space="preserve">
<title>Logos</title>
<path fill="#E22319" d="M157.471,33.068c-4.371,0-9.015,1.912-12.02,6.01v-5.19h-10.107v37.154h10.107V49.732
	c0-3.824,3.005-7.922,8.469-7.922c4.098,0,8.469,3.005,8.469,7.922v21.035h10.108V47.82
	C172.77,39.351,166.487,33.068,157.471,33.068 M245.164,33.615l-9.288,25.405l-9.289-25.405h-11.474l15.299,37.153h11.199
	l15.025-37.153H245.164z M124.416,59.293c-4.371,3.279-6.83,3.826-10.654,3.826c-3.551,0-6.283-1.094-8.195-3.006l25.952-10.928
	c-0.546-4.097-2.186-7.649-4.37-10.38c-3.553-4.098-8.47-6.011-14.752-6.011c-11.201,0-19.67,8.196-19.67,19.124
	c0,11.201,8.469,19.123,20.762,19.123c6.83,0,13.932-3.277,17.211-7.104L124.416,59.293z M104.746,44.815
	c1.64-2.459,4.371-3.824,7.922-3.824c3.552,0,6.557,2.186,7.923,5.191l-17.757,7.375C102.288,50.006,103.381,47,104.746,44.815z
	 M91.906,61.479H68.686V22.687H58.305v48.081h33.602V61.479z M274.942,71.314c-11.201,0-19.943-8.195-19.943-19.123
	c0-10.656,8.742-19.124,19.943-19.124c11.199,0,19.941,8.195,19.941,19.124C295.156,63.119,286.414,71.314,274.942,71.314
	 M274.942,41.81c-5.737,0-9.836,4.372-9.836,10.381c0,5.736,4.371,10.381,9.836,10.381c5.736,0,9.834-4.371,9.834-10.381
	C285.049,46.453,280.678,41.81,274.942,41.81 M196.537,71.314c-11.201,0-19.943-8.195-19.943-19.123
	c0-10.656,8.742-19.124,19.943-19.124c11.2,0,19.941,8.195,19.941,19.124C216.479,63.117,207.739,71.314,196.537,71.314
	 M196.537,41.81c-5.737,0-9.836,4.372-9.836,10.381c0,5.736,4.371,10.381,9.836,10.381c5.736,0,9.834-4.371,9.834-10.381
	C206.645,46.453,202.274,41.81,196.537,41.81 M296.523,66.396h-1.64v-0.82h4.371v0.82h-1.639v4.371h-1.093V66.396z M300.348,65.578
	h1.092l1.64,2.459l1.64-2.459h1.093v5.463h-1.093v-3.824l-1.64,2.459l-1.64-2.459v3.824h-1.092V65.578z"/>
</svg>
