<?xml version="1.0" encoding="utf-8"?>
<!-- Generator: Adobe Illustrator 16.0.3, SVG Export Plug-In . SVG Version: 6.00 Build 0)  -->
<!DOCTYPE svg PUBLIC "-//W3C//DTD SVG 1.1//EN" "http://www.w3.org/Graphics/SVG/1.1/DTD/svg11.dtd">
<svg version="1.1" id="Capa_1" xmlns="http://www.w3.org/2000/svg" xmlns:xlink="http://www.w3.org/1999/xlink" x="0px" y="0px"
	 width="352px" height="92px" viewBox="0 0 352 92" enable-background="new 0 0 352 92" xml:space="preserve">
<title>Logos</title>
<path id="polygon3009" fill="#ABB2B9" stroke="#FFFFFF" stroke-miterlimit="10" d="M102.651,25.564H66.74v8.734l3.28,12.989
	l10.296,0.589l8.734-8.735l17.288-3.711L102.651,25.564z"/>
<path id="polygon3005" fill="#ABB2B9" stroke="#FFFFFF" stroke-miterlimit="10" d="M66.74,34.298v35.911h8.734l14.618-1.223
	l-1.019-12.377L66.74,34.298L66.74,34.298z"/>
<path id="polygon3007" fill="#ABB2B9" stroke="#FFFFFF" stroke-miterlimit="10" d="M75.475,70.209h35.911v-8.734l-3.825-11.631
	l-9.774-1.968L75.475,70.209z"/>
<path id="path3011" fill="#ABB2B9" d="M283.134,43.282l-7.896,7.173l7.896,7.219v4.163h-0.248l-11.722-10.636v10.115h-3.396V30.723
	h3.396v19.121l11.653-10.613h0.315L283.134,43.282L283.134,43.282z M129.963,61.316h17.333v-3.418h-13.803v-26.18h-3.53V61.316z
	 M159.289,39.254c-5.317,0-10.159,4.322-10.159,11.292c0,6.767,4.435,11.245,10.815,11.245c2.852,0,5.477-0.725,7.853-2.441v-3.645
	c-2.49,2.082-5.25,2.964-7.739,2.964c-3.824,0-7.219-2.376-7.535-6.812h16.157c0.045-0.431,0.135-1.381,0.135-1.742
	C168.816,42.987,164.517,39.254,159.289,39.254L159.289,39.254z M159.312,42.354c3.01,0,6.064,1.946,6.178,6.539h-12.988
	C152.705,45.341,155.443,42.354,159.312,42.354L159.312,42.354z M216.313,39.254c-2.873,0-4.955,1.516-6.199,3.756
	c-1.041-2.398-2.964-3.756-6.042-3.756c-2.692,0-4.684,1.561-5.771,3.643h-0.09l-0.408-3.213h-2.692v21.61h3.439V47.648
	c0-2.647,1.652-5.114,4.639-5.114c2.919,0,4.209,1.72,4.209,4.842v13.94h3.439V47.424c0-2.513,1.675-4.889,4.616-4.889
	c2.964,0,4.23,1.72,4.23,4.842v13.939h3.439V46.902C223.146,42.376,221.042,39.254,216.313,39.254z M237.063,39.254
	c-5.159,0-9.979,4.367-9.979,11.292c0,6.833,4.798,11.245,9.979,11.245c3.235,0,6.29-1.516,7.92-4.525h0.045l0.407,4.053h2.807
	V39.707h-2.807l-0.407,4.05h-0.045C243.354,40.792,240.299,39.254,237.063,39.254z M237.696,42.467c4.074,0,7.174,3.282,7.174,8.057
	c0,4.752-3.077,8.056-7.174,8.056c-4.005,0-7.173-3.235-7.173-8.011C230.523,45.704,233.691,42.467,237.696,42.467L237.696,42.467z
	 M262.904,39.458c-1.879,0-4.729,0.882-6.199,3.688h-0.045l-0.361-3.439h-2.762v21.611h3.439V48.871
	c0-5.001,4.049-6.563,7.376-5.884V39.57C263.9,39.503,263.471,39.458,262.904,39.458L262.904,39.458z M190.698,39.209h-0.271
	l-9.028,9.005l-9.005-9.005h-0.272v4.367l6.946,6.947l-6.946,6.9v4.412h0.272l8.959-9.052l9.074,9.052h0.271V57.4l-7.016-6.946
	l7.016-7.06V39.209L190.698,39.209z M283.134,31.198v-0.475h3.757v0.475h-1.584v3.757h-0.564v-3.78
	C284.718,31.198,283.134,31.198,283.134,31.198L283.134,31.198z M288.791,30.723l1.63,3.575l1.629-3.575h0.77v4.232h-0.543v-3.553
	l-1.629,3.553h-0.476l-1.607-3.553v3.553h-0.543v-4.254h0.771L288.791,30.723L288.791,30.723z"/>
<path id="polygon3003" fill="#ABB2B9" stroke="#FFFFFF" stroke-width="0.75" stroke-miterlimit="10" d="M111.386,61.475V25.564
	h-8.735L89.074,39.141L111.386,61.475z"/>
</svg>
