<?xml version="1.0" encoding="utf-8"?>
<!-- Generator: Adobe Illustrator 16.0.3, SVG Export Plug-In . SVG Version: 6.00 Build 0)  -->
<!DOCTYPE svg PUBLIC "-//W3C//DTD SVG 1.1//EN" "http://www.w3.org/Graphics/SVG/1.1/DTD/svg11.dtd">
<svg version="1.1" id="Capa_1" xmlns="http://www.w3.org/2000/svg" xmlns:xlink="http://www.w3.org/1999/xlink" x="0px" y="0px"
	 width="352px" height="92px" viewBox="0 0 352 92" enable-background="new 0 0 352 92" xml:space="preserve">
<title>Logos</title>
<g>
	<path id="polygon3009" fill="#00C425" d="M102.651,25.564H66.74v8.734l3.281,12.989l10.296,0.589l8.734-8.735l17.288-3.711
		L102.651,25.564z"/>
	<path id="polygon3005" fill="#3AF23A" d="M66.74,34.298v35.911h8.735l14.618-1.222l-1.019-12.378L66.74,34.298L66.74,34.298z"/>
	<path id="polygon3007" fill="#006446" d="M75.475,70.209h35.911v-8.734l-3.825-11.631l-9.775-1.968L75.475,70.209z"/>
	<path id="path3011" fill="#383842" d="M283.134,43.282l-7.896,7.173l7.896,7.219v4.163h-0.248l-11.722-10.636v10.116h-3.395V30.723
		h3.395v19.121l11.654-10.613h0.315V43.282L283.134,43.282z M129.963,61.317h17.333v-3.418h-13.803V31.719h-3.53V61.317z
		 M159.289,39.254c-5.317,0-10.159,4.322-10.159,11.292c0,6.766,4.435,11.245,10.816,11.245c2.851,0,5.476-0.724,7.852-2.442v-3.644
		c-2.49,2.082-5.25,2.964-7.739,2.964c-3.824,0-7.219-2.376-7.535-6.812h16.157c0.045-0.43,0.135-1.38,0.135-1.742
		C168.816,42.987,164.517,39.254,159.289,39.254L159.289,39.254z M159.312,42.354c3.01,0,6.064,1.946,6.178,6.539h-12.989
		C152.705,45.341,155.443,42.354,159.312,42.354L159.312,42.354z M216.313,39.254c-2.873,0-4.955,1.516-6.199,3.756
		c-1.041-2.398-2.964-3.756-6.042-3.756c-2.693,0-4.684,1.561-5.771,3.643h-0.09l-0.408-3.213h-2.692v21.61h3.439V47.649
		c0-2.648,1.652-5.115,4.639-5.115c2.919,0,4.209,1.72,4.209,4.842v13.94h3.439V47.424c0-2.513,1.675-4.889,4.616-4.889
		c2.964,0,4.231,1.72,4.231,4.842v13.94h3.439V46.902C223.146,42.376,221.042,39.254,216.313,39.254z M237.063,39.254
		c-5.159,0-9.979,4.367-9.979,11.292c0,6.833,4.798,11.245,9.979,11.245c3.235,0,6.29-1.515,7.92-4.525h0.045l0.407,4.052h2.806
		V39.707h-2.806l-0.407,4.05h-0.045C243.354,40.792,240.299,39.254,237.063,39.254z M237.696,42.467
		c4.074,0,7.173,3.282,7.173,8.057c0,4.752-3.077,8.055-7.173,8.055c-4.005,0-7.173-3.235-7.173-8.01
		C230.523,45.704,233.691,42.467,237.696,42.467L237.696,42.467z M262.904,39.458c-1.879,0-4.729,0.882-6.2,3.688h-0.045
		l-0.361-3.439h-2.762v21.611h3.44V48.871c0-5.001,4.049-6.563,7.376-5.884V39.57C263.9,39.503,263.471,39.458,262.904,39.458
		L262.904,39.458z M190.698,39.209h-0.272l-9.028,9.005l-9.005-9.005h-0.273v4.367l6.947,6.947l-6.947,6.901v4.412h0.273
		l8.959-9.052l9.074,9.052h0.272v-4.436l-7.016-6.946l7.016-7.06V39.209L190.698,39.209z M283.134,31.198v-0.475h3.757v0.475h-1.584
		v3.757h-0.565v-3.78C284.718,31.198,283.134,31.198,283.134,31.198L283.134,31.198z M288.791,30.723l1.63,3.575l1.629-3.575h0.77
		v4.232h-0.543v-3.553l-1.629,3.553h-0.476l-1.607-3.553v3.553h-0.543v-4.254h0.77V30.723z"/>
	<path id="polygon3003" fill="#008A44" d="M111.386,61.475V25.564h-8.735L89.074,39.141L111.386,61.475z"/>
</g>
</svg>
