<?xml version="1.0" encoding="utf-8"?>
<!-- Generator: Adobe Illustrator 16.0.3, SVG Export Plug-In . SVG Version: 6.00 Build 0)  -->
<!DOCTYPE svg PUBLIC "-//W3C//DTD SVG 1.1//EN" "http://www.w3.org/Graphics/SVG/1.1/DTD/svg11.dtd">
<svg version="1.1" id="Capa_1" xmlns="http://www.w3.org/2000/svg" xmlns:xlink="http://www.w3.org/1999/xlink" x="0px" y="0px"
	 width="352px" height="92px" viewBox="0 0 352 92" enable-background="new 0 0 352 92" xml:space="preserve">
<title>Logos</title>
<path fill="#14B4E9" d="M83.164,63.266V20.764h7.465v42.501H83.164L83.164,63.266L83.164,63.266z M109.74,32.432
	c-9.573,0-16.196,7.359-16.196,15.783c0,9.401,7.206,15.879,16.271,15.879c8.604,0,16.068-6.354,16.068-15.898
	C125.882,40.172,119.696,32.432,109.74,32.432L109.74,32.432z M109.652,39.634c5.011,0,8.696,3.899,8.696,8.608
	c0,4.992-4.063,8.636-8.562,8.636c-5.313,0-8.656-4.211-8.656-8.622C101.131,43.42,104.906,39.634,109.652,39.634L109.652,39.634z
	 M144.64,32.432c-9.572,0-16.196,7.359-16.196,15.783c0,9.401,7.206,15.879,16.271,15.879c8.603,0,16.067-6.354,16.067-15.898
	c0-5.617-2.435-8.109-2.435-8.109l2.069-0.71v-6.059h-10.604C149.815,33.315,147.516,32.432,144.64,32.432z M144.552,39.634
	c5.009,0,8.696,3.899,8.696,8.608c0,4.992-4.065,8.636-8.563,8.636c-5.313,0-8.656-4.211-8.656-8.622
	C136.031,43.42,139.806,39.634,144.552,39.634L144.552,39.634z M153.196,65.342c0,4.993-4.063,8.663-8.561,8.663
	c-5.313,0-8.67-4.251-8.67-8.663h-7.574c0,9.402,7.206,15.879,16.271,15.879c8.603,0,16.065-6.338,16.065-15.879H153.196z
	 M163.772,63.266V33.315h7.466v29.951H163.772z M178.487,63.266V40.023h-4.003v-6.708h4.003v-9.197h7.468v9.197h4.109v6.708h-4.109
	v23.241h-7.468V63.266z M172.433,24.809c0,2.73-2.213,4.944-4.944,4.944c-2.729,0-4.942-2.213-4.942-4.944s2.214-4.944,4.942-4.944
	C170.22,19.865,172.433,22.078,172.433,24.809z M206.85,32.412c-9.618,0-15.816,7.363-15.816,16.074
	c0,9.003,6.221,15.628,15.974,15.628c9.097,0,13.571-5.681,13.571-5.681l-4.99-4.998c0,0-3.77,4.063-8.486,4.063
	c-3.934,0-7.079-2.194-8.176-6.222h23.263v-2.057C222.187,41.02,217.438,32.412,206.85,32.412L206.85,32.412z M206.613,38.985
	c3.438,0,6.955,1.84,7.742,6.235H198.72C199.34,42.131,202.042,38.985,206.613,38.985z M240.86,64.118
	c-9.645,0-16.217-7.347-16.217-16.007c0-8.938,7.428-15.708,16.188-15.708c8.466,0,12.801,5.977,12.801,5.977l-5.208,5.185
	c0,0-3.019-3.897-7.629-3.897c-5.109,0-8.604,3.909-8.604,8.558c0,4.906,3.718,8.672,8.547,8.672c4.688,0,7.68-3.893,7.68-3.893
	l5.261,5.182C253.675,58.188,249.383,64.118,240.86,64.118L240.86,64.118L240.86,64.118L240.86,64.118z M256.391,63.285V20.656
	h7.466v15.663c0,0,2.858-3.913,9.077-3.913c7.817,0,12.347,5.811,12.347,13.244v17.636h-7.466V46.777
	c0-4.992-3.106-7.064-6.553-7.064c-3.924,0-7.404,2.233-7.404,7.451v16.121H256.391L256.391,63.285z"/>
</svg>
