<?xml version="1.0" encoding="utf-8"?>
<!-- Generator: Adobe Illustrator 16.0.3, SVG Export Plug-In . SVG Version: 6.00 Build 0)  -->
<!DOCTYPE svg PUBLIC "-//W3C//DTD SVG 1.1//EN" "http://www.w3.org/Graphics/SVG/1.1/DTD/svg11.dtd">
<svg version="1.1" id="Capa_1" xmlns="http://www.w3.org/2000/svg" xmlns:xlink="http://www.w3.org/1999/xlink" x="0px" y="0px"
	 width="352px" height="92px" viewBox="0 0 352 92" enable-background="new 0 0 352 92" xml:space="preserve">
<title>Logos</title>
<g>
	<g>
		<path fill="#002843" d="M185.506,29.811c-7.926-0.112-14.447,6.184-14.56,14.109c0,0.225,0,0.506,0,0.73v28.162l7.309-4.158
			V56.175c2.081,1.573,4.722,2.417,7.42,2.417c7.927,0.225,14.559-6.184,14.728-14.109c0.226-7.926-6.184-14.559-14.108-14.728
			C186.012,29.811,185.844,29.811,185.506,29.811L185.506,29.811z M185.506,51.341c-3.991,0-7.195-3.261-7.195-7.196
			c0-3.99,3.26-7.193,7.195-7.193s7.195,3.26,7.195,7.193l0,0c0.225,3.768-2.697,7.027-6.466,7.196
			C185.9,51.341,185.73,51.341,185.506,51.341z M235.648,20.704l7.308-4.272v41.036h-7.308V20.704z M217.436,29.811
			c-7.927,0.113-14.335,6.578-14.223,14.56c0.113,7.926,6.576,14.334,14.561,14.222c7.925-0.112,14.222-6.464,14.222-14.446
			s-6.408-14.334-14.277-14.446C217.604,29.811,217.547,29.811,217.436,29.811L217.436,29.811z M217.436,51.341
			c-3.992,0-7.195-3.261-7.195-7.196c0-3.99,3.261-7.193,7.195-7.193s7.195,3.26,7.195,7.193l0,0
			c0.225,3.768-2.699,7.027-6.465,7.196C217.828,51.341,217.604,51.341,217.436,51.341L217.436,51.341z M276.516,30.822
			L259.37,69.947h-7.87l5.959-13.1l-11.523-26.082h7.926l7.533,17.032l7.193-17.032h7.928V30.822L276.516,30.822z"/>
	</g>
	<g>
		<path fill="#EB3C00" d="M111.024,54.318c-5.733,0-10.343-4.664-10.343-10.398c0-5.732,4.609-10.455,10.343-10.455
			c5.734,0,10.344,4.665,10.344,10.455S116.758,54.318,111.024,54.318z M139.13,39.873l-10.961,6.408L128.225,46l0.056-0.281
			l0.057-0.449v-0.057v-0.056v-0.563v-0.619v-0.447v-0.619l-0.057-0.563l-0.056-0.619l-0.056-0.336l-0.112-0.619l-0.112-0.563
			l-0.112-0.563l-0.112-0.563l-0.112-0.337l-0.169-0.563l-0.169-0.506l-0.168-0.449l-0.225-0.506l-0.226-0.506l-0.225-0.506
			l-0.281-0.505l-0.28-0.45v-0.057l-0.281-0.45l-0.281-0.449l-0.281-0.281l-0.338-0.45l-0.336-0.45l-0.057-0.057l-0.45-0.393
			l-0.394-0.45l-0.394-0.45l-0.45-0.45l-0.057-0.056l-0.506-0.394l-0.506-0.45l-0.507-0.337l-0.562-0.45l-0.619-0.45l-0.505-0.281
			l-0.731-0.45l-0.787-0.506l-0.281-0.168l-1.012-0.563l-0.226-0.168l-0.619-0.337L93.542,13.284v8.094l10.961,6.353l-0.28,0.112
			l-0.226,0.112l-0.394,0.168h-0.057h-0.056l-0.45,0.338l-0.506,0.281l-0.337,0.225l-0.507,0.337l-0.505,0.281l-0.506,0.337
			l-0.225,0.225l-0.45,0.393l-0.45,0.395l-0.45,0.336l-0.393,0.394l-0.226,0.282l-0.394,0.393l-0.337,0.394l-0.281,0.337
			l-0.338,0.45l-0.337,0.449l-0.281,0.45l-0.28,0.45l-0.281,0.45v0.056l-0.281,0.506l-0.225,0.506l-0.337,0.504l-0.226,0.506
			l-0.169,0.563v0.056l-0.169,0.563l-0.168,0.562l-0.169,0.563l-0.112,0.618v0.057l-0.111,0.618l-0.112,0.674l-0.113,0.677
			l-0.111,0.729l-0.057,0.787l-0.057,0.562l-0.057,0.844v0.957v0.336v1.181v0.28v0.676V74.5l6.971-4.048V57.691l0.225,0.168
			l0.226,0.17l0.337,0.281l0,0l0,0l0.449,0.28l0.507,0.281l0.394,0.226l0.562,0.28l0.506,0.226l0.563,0.28l0.28,0.112l0.563,0.225
			l0.563,0.225l0.562,0.17l0.563,0.169l0.337,0.112l0.562,0.111l0.563,0.113l0.449,0.056l0.563,0.058l0.563,0.056l0.505,0.058h0.562
			h0.563h0.056h0.563l0.563-0.058l0.563-0.056l0.562-0.058l0.563-0.112h0.057l0.562-0.111l0.563-0.169l0.562-0.169l0.619-0.17h0.057
			l0.618-0.225l0.619-0.225l0.618-0.225l0.675-0.281l0.675-0.338l0.505-0.226l0.788-0.393l0.843-0.45l0.281-0.169l1.012-0.562
			l0.225-0.112l0.619-0.339l22.148-12.93L139.13,39.873L139.13,39.873z"/>
	</g>
</g>
</svg>
