<?xml version="1.0" encoding="utf-8"?>
<!-- Generator: Adobe Illustrator 16.0.3, SVG Export Plug-In . SVG Version: 6.00 Build 0)  -->
<!DOCTYPE svg PUBLIC "-//W3C//DTD SVG 1.1//EN" "http://www.w3.org/Graphics/SVG/1.1/DTD/svg11.dtd">
<svg version="1.1" id="Capa_1" xmlns="http://www.w3.org/2000/svg" xmlns:xlink="http://www.w3.org/1999/xlink" x="0px" y="0px"
	 width="352px" height="92px" viewBox="0 0 352 92" enable-background="new 0 0 352 92" xml:space="preserve">
<title>Logos</title>
<g transform="matrix(1.67785 0 0 1.67785 28.3221 160.126)">
	<path fill="#034EA2" d="M25.474-61.257c0.205,0.515,0.141,1.175,0.04,1.574c-0.175,0.71-0.655,1.435-2.075,1.435
		c-1.329,0-2.139-0.771-2.139-1.931v-2.064h-5.714v1.64c0,4.75,3.734,6.184,7.739,6.184c3.849,0,7.018-1.31,7.524-4.863
		c0.26-1.84,0.07-3.044-0.021-3.489c-0.899-4.46-8.978-5.789-9.583-8.283c-0.084-0.369-0.091-0.75-0.019-1.12
		c0.149-0.685,0.615-1.43,1.944-1.43c1.25,0,1.975,0.77,1.975,1.93v1.32h5.314v-1.5c0-4.639-4.164-5.364-7.174-5.364
		c-3.789,0-6.884,1.255-7.449,4.729c-0.15,0.95-0.175,1.8,0.05,2.87C16.811-65.271,24.375-64.011,25.474-61.257"/>
	<path fill="#034EA2" d="M38.382-76.539l-3.95,21.291h5.755l2.914-19.321h0.12l2.834,19.321h5.724l-3.925-21.296L38.382-76.539z
		 M70.55-76.539l-2.625,16.277H67.8l-2.619-16.277h-8.683l-0.47,21.291h5.329l0.13-19.141h0.12l3.554,19.141h5.404l3.559-19.136
		h0.115l0.135,19.136h5.323l-0.469-21.296L70.55-76.539z"/>
	<path fill="#034EA2" d="M94.696-61.297c0.204,0.516,0.139,1.175,0.039,1.576c-0.175,0.709-0.654,1.434-2.074,1.434
		c-1.33,0-2.14-0.769-2.14-1.928v-2.065h-5.713v1.64c0,4.748,3.733,6.184,7.738,6.184c3.85,0,7.019-1.31,7.523-4.863
		c0.26-1.84,0.071-3.045-0.019-3.49c-0.901-4.46-8.978-5.788-9.583-8.283c-0.085-0.369-0.092-0.749-0.022-1.12
		c0.151-0.685,0.615-1.429,1.945-1.429c1.25,0,1.974,0.769,1.974,1.929v1.319h5.315v-1.5c0-4.639-4.164-5.364-7.174-5.364
		c-3.789,0-6.883,1.255-7.448,4.729c-0.15,0.95-0.174,1.8,0.049,2.869C86.031-65.311,93.594-64.051,94.696-61.297"/>
	<path fill="#034EA2" d="M112.565-58.437c1.48,0,1.935-1.02,2.041-1.54c0.045-0.229,0.05-0.54,0.05-0.815v-15.747h5.39v15.262
		c0,0.468-0.017,0.934-0.051,1.399c-0.375,3.975-3.514,5.264-7.43,5.264c-3.918,0-7.057-1.29-7.432-5.264
		c-0.015-0.211-0.055-1.009-0.051-1.399v-15.267h5.39v15.747c-0.005,0.281,0.005,0.59,0.049,0.819
		C110.621-59.458,111.082-58.437,112.565-58.437 M138.602-76.539l0.289,16.712h-0.115l-4.898-16.712h-7.899v21.065h5.233
		l-0.289-17.291h0.116l5.253,17.291h7.583v-21.065H138.602z M156.971-58.658c1.541,0,2.08-0.974,2.176-1.549
		c0.044-0.235,0.049-0.535,0.049-0.801v-3.1h-2.183v-3.098h7.543v5.709c0,0.4-0.01,0.69-0.075,1.4
		c-0.35,3.878-3.715,5.263-7.49,5.263c-3.773,0-7.133-1.385-7.488-5.263c-0.059-0.711-0.074-1.001-0.074-1.4v-8.958
		c0-0.38,0.049-1.05,0.09-1.399c0.475-3.984,3.7-5.264,7.473-5.264c3.775,0,7.084,1.27,7.475,5.259
		c0.069,0.68,0.049,1.399,0.049,1.399v0.715h-5.368v-1.195c0,0,0-0.499-0.066-0.81c-0.1-0.469-0.501-1.549-2.13-1.549
		c-1.549,0-2.005,1.024-2.12,1.549c-0.064,0.28-0.09,0.66-0.09,1.005v9.733c0,0.269,0.011,0.57,0.051,0.81
		C154.893-59.632,155.432-58.658,156.971-58.658"/>
</g>
</svg>
