<?xml version="1.0" encoding="utf-8"?>
<!-- Generator: Adobe Illustrator 16.0.3, SVG Export Plug-In . SVG Version: 6.00 Build 0)  -->
<!DOCTYPE svg PUBLIC "-//W3C//DTD SVG 1.1//EN" "http://www.w3.org/Graphics/SVG/1.1/DTD/svg11.dtd">
<svg version="1.1" id="Capa_1" xmlns="http://www.w3.org/2000/svg" xmlns:xlink="http://www.w3.org/1999/xlink" x="0px" y="0px"
	 width="352px" height="92px" viewBox="0 0 352 92" enable-background="new 0 0 352 92" xml:space="preserve">
<title>Logos</title>
<path fill="#0089CC" d="M190.11,38.285h4.393v22.775h-5.579l-6.494-10.521c-1.098-1.829-2.104-3.75-2.104-3.75h-0.094v14.271h-4.391
	V38.285h5.214l7.683,12.438c0.552,0.824,0.915,1.647,1.281,2.563L190.11,38.285L190.11,38.285z M215.448,47.614h-7.685v-9.421
	h-5.578v22.775h5.578v-9.694h7.685v9.694h5.579V38.193h-5.579V47.614z M133.583,51.09h7.226v-3.385h-7.226v-5.944h9.694v-3.476
	h-15.273v22.775h15.458v-3.844h-9.879V51.09L133.583,51.09z M113.461,43.407c-0.366-0.457-0.274-1.097,0.092-1.463
	c0.182-0.183,0.457-0.275,0.731-0.275h8.322v-3.384h-9.879c-2.651-0.092-4.848,1.92-5.029,4.572c0,1.373,0.091,2.287,2.104,4.392
	l7.409,7.774c0.549,0.457,0.64,1.188,0.272,1.736c-0.272,0.366-0.64,0.549-1.098,0.456h-9.146v3.843h10.428
	c3.018,0.094,5.486-2.193,5.58-5.214v-0.183c0-1.463-0.367-2.563-2.379-4.574L113.461,43.407z M163.768,53.193
	c-0.365-0.914-0.823-1.736-1.371-2.563l-7.684-12.438h-5.214v22.775h4.391V46.791h0.091c0,0,0.915,2.014,2.104,3.75l6.495,10.52
	h5.579V38.285h-4.394L163.768,53.193L163.768,53.193z M287.342,51.09h7.227v-3.385h-7.227v-5.944h9.695v-3.476h-15.366v22.775
	h15.457v-3.844h-9.878L287.342,51.09L287.342,51.09z M321.823,61.061h-6.037l-4.39-9.33h-2.471v9.33h-5.58V38.285h10.245
	c4.938,0,7.227,3.018,7.227,6.585c0,2.744-1.738,5.213-4.391,6.128L321.823,61.061L321.823,61.061z M315.971,44.962
	c0-1.006-0.643-3.201-3.566-3.201h-3.477v6.493h3.384C315.422,48.254,315.971,45.969,315.971,44.962L315.971,44.962z
	 M267.128,43.407c-0.366-0.457-0.275-1.097,0.091-1.463c0.183-0.183,0.457-0.275,0.731-0.275h8.322v-3.384h-9.878
	c-2.651-0.092-4.849,1.92-5.032,4.572c0,1.373,0.094,2.287,2.104,4.392l7.408,7.774c0.55,0.457,0.641,1.188,0.272,1.736
	c-0.272,0.366-0.641,0.549-1.097,0.456h-9.147v3.843h10.429c3.02,0.094,5.486-2.193,5.579-5.214v-0.183
	c0-1.463-0.365-2.563-2.378-4.574L267.128,43.407L267.128,43.407z M234.29,51.09h7.226v-3.385h-7.226v-5.944h9.694v-3.476h-15.365
	v22.775h15.458v-3.844h-9.881L234.29,51.09z M250.298,61.061h5.578V38.285h-5.578V61.061z M36.811,30.418v38.417h51.225V30.418
	H36.811z M64.982,33.986c-3.018,1.189-5.943,3.75-8.322,8.964c-0.642,1.463-2.014,4.39-2.563,5.671
	c-4.756,10.427-7.134,12.622-14.361,12.622V33.345H64.89c0.183,0,0.366,0.183,0.366,0.366
	C65.257,33.803,65.166,33.894,64.982,33.986z M85.105,38.011v27.896H59.952c-0.185,0-0.366-0.183-0.366-0.364
	c0-0.184,0.091-0.273,0.184-0.366c3.02-1.188,5.945-3.751,8.323-8.964c0.64-1.464,2.012-4.39,2.561-5.672
	C75.501,40.206,77.879,38.011,85.105,38.011L85.105,38.011z"/>
</svg>
