<?xml version="1.0" encoding="utf-8"?>
<!-- Generator: Adobe Illustrator 16.0.3, SVG Export Plug-In . SVG Version: 6.00 Build 0)  -->
<!DOCTYPE svg PUBLIC "-//W3C//DTD SVG 1.1//EN" "http://www.w3.org/Graphics/SVG/1.1/DTD/svg11.dtd">
<svg version="1.1" id="Capa_1" xmlns="http://www.w3.org/2000/svg" xmlns:xlink="http://www.w3.org/1999/xlink" x="0px" y="0px"
	 width="352px" height="92px" viewBox="0 0 352 92" enable-background="new 0 0 352 92" xml:space="preserve">
<title>Logos</title>
<path fill="#D92231" d="M283.727,28.165h-1.29v-0.777h3.412v0.777h-1.29v4.217h-0.832V28.165L283.727,28.165z M286.652,27.388h1.431
	l1.248,4.218h0.084l1.248-4.218h1.43v4.994h-0.805v-4.217h-0.083l-1.265,4.217h-1.137l-1.264-4.217h-0.083v4.217h-0.807
	L286.652,27.388L286.652,27.388z"/>
<path fill="#D92231" d="M226.359,49.191c0-7.585-2.919-14.299-10.687-14.299c-7.782,0-10.78,6.714-10.78,14.299
	c0,7.584,2.998,14.307,10.78,14.307C223.44,63.498,226.359,56.775,226.359,49.191 M237.813,49.191
	c0,12.968-9.171,22.556-22.161,22.556c-13.224,0-22.213-9.187-22.213-22.548c0-12.64,8.872-22.563,22.213-22.563
	C228.642,26.636,237.813,36.231,237.813,49.191 M149.392,45.009h-20.088c0.2-1.443,0.628-2.847,1.269-4.154
	c1.806-3.614,5.204-5.918,9.454-5.918c5.817,0,9.365,3.95,9.365,9.809V45.009z M159.817,45.184
	c-0.532-5.858-2.685-10.583-6.298-13.772c-3.459-3.079-8.104-4.753-13.863-4.753c-4.243,0-9.608,1.47-13.56,4.709
	c-4.699,3.877-8.356,9.933-8.356,18.095c0,7.036,2.295,12.697,6.4,16.523c4.015,3.759,9.717,5.799,16.764,5.799
	c5.685,0,12.552-2.135,15.478-3.956c1.038-0.63,1.369-0.915,1.106-1.953l-1.848-5.207c-0.204-0.833-1.161-1.062-1.923-0.672
	c-1.161,0.598-2.354,1.136-3.569,1.606c-2.538,0.943-5.188,1.588-7.687,1.588c-5.271,0-8.286-1.435-10.576-4.097
	c-1.455-1.683-2.308-3.797-2.57-6.253h29.113c1.045,0,1.521-0.725,1.521-1.975v-2.094C159.949,47.743,159.905,46.156,159.817,45.184
	 M170.284,32.874c3.291-4.242,8.433-6.181,16.843-6.181c1.99,0.001,3.975,0.2,5.924,0.593c0.988,0.234,1.15,1.016,0.959,2.034
	l-0.995,4.899c-0.219,0.914-0.48,1.178-1.199,1.178c-0.196-0.002-0.396-0.016-0.592-0.044c-0.694-0.094-2.676-0.307-3.496-0.307
	c-4.183,0-6.166,1.046-7.66,2.611c-1.736,1.865-1.789,4.607-1.789,9.516V68.96c0,1.435-0.628,2.238-2.165,2.238h-6.653
	c-1.419,0-2.033-0.702-2.15-2.238V47.566C167.307,39.778,167.757,36.129,170.284,32.874 M260.501,41.943
	c1.486-1.558,4.958-5.844,8.803-13.099c0.654-1.244,1.242-1.558,2.102-1.558h7.14c0.649,0,1.419,0.314,1.003,1.558
	c-2.838,8.418-9.318,15.813-12.902,19.631c3.902,3.699,10.839,12.461,14.1,21.063c0.288,0.774,0.146,1.66-1.48,1.66h-8.543
	c-0.878,0-1.584-0.081-2.172-1.552c-2.118-5.272-5.427-10.816-9.209-14.461c-4.14,4.392-7.277,9.787-9.392,14.461
	c-0.525,1.148-1.038,1.552-2.17,1.552h-7.838c-0.527,0-1.063-0.606-0.716-1.552c2.33-6.393,6.97-14.351,13.626-20.34
	c-5.235-6.306-10.251-13.993-12.226-20.465c-0.305-0.973,0.216-1.558,0.945-1.558h9.197c1.006,0,1.525,0.41,2.017,1.558
	C255.051,34.118,258.142,39.143,260.501,41.943 M95.755,41.943c1.482-1.558,4.952-5.844,8.81-13.099
	c0.647-1.244,1.227-1.558,2.098-1.558h7.151c0.639,0,1.404,0.314,0.987,1.558c-2.854,8.418-9.325,15.813-12.909,19.631
	c3.913,3.707,10.846,12.469,14.123,21.063c0.278,0.774,0.132,1.66-1.51,1.66h-8.55c-0.884,0-1.552-0.081-2.154-1.552
	c-2.113-5.272-5.434-10.816-9.208-14.451c-4.136,4.382-7.277,9.785-9.402,14.451c-0.509,1.148-1.02,1.552-2.152,1.552h-7.833
	c-0.527,0-1.063-0.606-0.727-1.552c2.333-6.393,6.979-14.351,13.611-20.34c-5.192-6.306-10.232-13.991-12.207-20.464
	c-0.3-0.973,0.226-1.558,0.947-1.558h9.195c1.001,0,1.517,0.409,2.022,1.558C90.299,34.118,93.4,39.143,95.755,41.943"/>
</svg>
